<svg id="Capa_1" fill="#084a5c" enable-background="new 0 0 512 512" height="512" viewBox="0 0 512 512" width="512" xmlns="http://www.w3.org/2000/svg"><g><path d="m301.975 438.177c.903 0 1.822-.165 2.715-.511l.474-.184c3.861-1.5 5.774-5.847 4.273-9.708-1.5-3.86-5.846-5.773-9.707-4.273l-.474.184c-3.861 1.5-5.774 5.847-4.273 9.708 1.153 2.967 3.988 4.784 6.992 4.784z"/><path d="m291.715 455.651c1.153 2.968 3.988 4.785 6.992 4.785.903 0 1.822-.165 2.715-.511l.474-.184c3.861-1.5 5.774-5.847 4.273-9.708-1.499-3.86-5.845-5.773-9.707-4.273l-.474.184c-3.861 1.5-5.774 5.846-4.273 9.707z"/><path d="m281.046 446.309c.903 0 1.822-.165 2.715-.511l.474-.184c3.861-1.5 5.774-5.847 4.273-9.708-1.5-3.86-5.845-5.773-9.707-4.273l-.474.184c-3.861 1.5-5.774 5.847-4.273 9.708 1.153 2.967 3.988 4.784 6.992 4.784z"/><path d="m289.591 98.657c.903 0 1.822-.165 2.715-.511l.474-.184c3.861-1.5 5.774-5.847 4.273-9.708-1.5-3.86-5.845-5.773-9.707-4.273l-.474.184c-3.861 1.5-5.774 5.847-4.273 9.708 1.153 2.968 3.988 4.784 6.992 4.784z"/><path d="m286.322 120.916c.901 0 1.819-.164 2.71-.51l.475-.184c3.862-1.498 5.778-5.843 4.28-9.705-1.497-3.861-5.843-5.779-9.704-4.28l-.475.184c-3.862 1.498-5.778 5.843-4.28 9.705 1.152 2.971 3.988 4.79 6.994 4.79z"/><path d="m268.661 106.789c.903 0 1.822-.165 2.715-.511l.474-.184c3.861-1.5 5.774-5.847 4.273-9.708-1.5-3.861-5.845-5.774-9.707-4.273l-.474.184c-3.861 1.5-5.774 5.847-4.273 9.708 1.153 2.967 3.988 4.784 6.992 4.784z"/><path d="m465.87 201.972c-20.412-35.449-49.724-65.358-84.766-86.493-4.584-2.765-6.697-8.234-5.139-13.301l5.477-17.809c2.188-7.118.906-14.636-3.519-20.626s-11.232-9.425-18.68-9.425h-6.116l3.871-27.937c.922-6.646-1.075-13.36-5.48-18.418-4.407-5.061-10.785-7.963-17.498-7.963h-22.16c-4.143 0-7.5 3.358-7.5 7.5s3.357 7.5 7.5 7.5h22.159c2.41 0 4.607.999 6.188 2.814 1.578 1.812 2.265 4.123 1.935 6.507l-4.157 29.997h-163.97l-4.156-29.998c-.33-2.383.356-4.694 1.935-6.506 1.58-1.814 3.777-2.814 6.188-2.814h103.88c4.143 0 7.5-3.358 7.5-7.5s-3.357-7.5-7.5-7.5h-103.882c-6.714 0-13.092 2.902-17.499 7.963-4.405 5.058-6.402 11.771-5.48 18.417l3.871 27.938h-6.115c-7.447 0-14.256 3.435-18.681 9.425s-5.707 13.508-3.519 20.625l5.516 17.938c1.557 5.061-.551 10.527-5.127 13.293-35.024 21.178-64.338 51.105-84.771 86.546-21.068 36.543-32.205 78.28-32.205 120.698 0 64.458 25.048 125.108 70.528 170.776 11.631 11.682 27.827 18.381 44.436 18.381h254.13c16.637 0 32.905-6.771 44.635-18.576 45.354-45.646 70.332-106.225 70.332-170.579-.001-42.539-11.122-84.336-32.161-120.873zm-129.964-132.654-6.846 49.404c-1.189 8.602-8.632 15.088-17.311 15.088h-111.5c-8.679 0-16.121-6.486-17.312-15.089l-6.845-49.403zm81.152 413.534c-8.934 8.991-21.325 14.148-33.995 14.148h-254.13c-12.647 0-24.97-5.089-33.807-13.964-42.661-42.837-66.156-99.727-66.156-160.191 0-39.793 10.443-78.939 30.2-113.206 19.172-33.253 46.676-61.332 79.537-81.202 10.475-6.332 15.287-18.89 11.704-30.539l-5.516-17.938c-.775-2.521-.321-5.183 1.245-7.304 1.567-2.121 3.979-3.338 6.616-3.338h8.193l7.13 51.46c2.211 15.981 16.041 28.032 32.17 28.032h111.5c16.129 0 29.959-12.051 32.169-28.031l7.131-51.461h8.195c2.637 0 5.048 1.217 6.615 3.338 1.566 2.121 2.021 4.783 1.245 7.304l-5.477 17.809c-3.586 11.662 1.237 24.226 11.729 30.554 32.871 19.827 60.366 47.882 79.514 81.134 19.73 34.263 30.159 73.472 30.159 113.388.001 60.366-23.428 117.19-65.971 160.007z"/><path d="m455.162 376.033c-2.903-1.787-6.644-1.392-9.107.959-9.448 9.01-19.864 16.267-31.059 21.711 8.36-12.594 11.521-28.087 8.491-43.257-.593-2.97-2.914-5.292-5.883-5.885-11.661-2.333-23.837-.933-34.619 3.789-4.236-10.926-11.768-20.459-21.835-27.174-2.52-1.682-5.805-1.681-8.324 0-10.067 6.716-17.6 16.249-21.836 27.175-10.784-4.722-22.961-6.121-34.618-3.789-2.969.594-5.289 2.915-5.883 5.884-2.729 13.651-.45 27.565 6.126 39.39-12.611-6.315-24.631-14.418-35.654-24.141-11.21-9.884-23.374-17.781-36.277-23.625 17.184-4 33.176-12.723 46.055-25.601 22.727-22.727 32.531-55.138 26.228-86.699-.593-2.97-2.914-5.292-5.883-5.885-21.417-4.284-43.885-1.019-63.102 8.933-6.49-20.567-19.829-38.613-38.313-50.944-2.52-1.681-5.805-1.681-8.324 0-18.483 12.331-31.822 30.376-38.312 50.944-19.216-9.951-41.686-13.217-63.101-8.932-2.969.594-5.289 2.915-5.883 5.884-6.313 31.562 3.493 63.974 26.229 86.702 7.842 7.841 16.838 14.14 26.553 18.774-25.365 6.828-49.702 19.9-70.514 38.148-2.232 1.957-3.1 5.047-2.213 7.88 5.417 17.307 13.076 33.859 22.767 49.196 2.214 3.503 6.846 4.546 10.347 2.334 3.502-2.213 4.547-6.845 2.335-10.347-8.116-12.845-14.697-26.608-19.6-40.975 25.508-21.094 56.204-33.931 86.955-36.281 34.995-2.675 67.545 8.304 94.133 31.746 29.876 26.353 66.6 41.838 103.405 43.602 28.938 1.389 56.649-5.899 80.293-20.794-9.601 20.865-22.933 40.116-39.302 56.596-3.261 3.274-7.768 5.152-12.365 5.152h-254.142c-4.599 0-9.036-1.815-12.189-4.996-3.492-3.503-6.88-7.163-10.067-10.878-2.698-3.143-7.433-3.507-10.576-.808-3.144 2.697-3.506 7.432-.808 10.576 3.43 3.998 7.073 7.935 10.814 11.686 5.935 5.987 14.254 9.42 22.826 9.42h254.14c8.559 0 16.939-3.488 23.001-9.575 24.338-24.501 42.436-54.699 52.336-87.328.989-3.263-.344-6.78-3.245-8.567zm-344.28-65.172c-17.971-17.965-26.365-43.105-22.971-68.11 17.83-2.395 36.19 1.269 51.659 10.285-.646 4.498-.987 9.069-.987 13.69 0 25.741 10.262 50.008 28.099 67.829-20.766-.356-40.789-8.684-55.8-23.694zm74.624 20.273c-20.078-15.287-31.922-39.001-31.922-64.407s11.844-49.121 31.922-64.407c20.081 15.287 31.923 39 31.923 64.407s-11.842 49.12-31.923 64.407zm46.923-64.408c0-4.621-.341-9.192-.987-13.689 15.469-9.016 33.824-12.68 51.659-10.286 3.388 25.006-5.006 50.146-22.97 68.111-15.011 15.01-35.035 23.337-55.803 23.693 17.839-17.821 28.101-42.088 28.101-67.829zm177.06 96.838c.939 12.362-3.512 24.572-12.396 33.457-6.007 6.006-13.539 9.967-21.605 11.625 7.295-9.816 11.395-21.813 11.395-34.409 0-2.015-.129-4.011-.334-5.989 7.022-3.636 15.018-5.273 22.94-4.684zm-52.502-21.754c9.409 8.077 14.896 19.861 14.896 32.427s-5.487 24.35-14.896 32.427c-9.409-8.077-14.897-19.861-14.897-32.427 0-12.568 5.487-24.35 14.897-32.427zm-52.503 21.754c7.918-.589 15.917 1.048 22.939 4.683-.205 1.979-.334 3.974-.334 5.99 0 12.596 4.101 24.593 11.395 34.409-8.066-1.658-15.597-5.618-21.604-11.625-8.887-8.885-13.339-21.094-12.396-33.457z"/><path d="m148.104 400.525c4.143 0 7.5-3.358 7.5-7.5v-.508c0-4.142-3.357-7.5-7.5-7.5s-7.5 3.358-7.5 7.5v.508c0 4.142 3.358 7.5 7.5 7.5z"/><path d="m175.168 404.132v-.508c0-4.142-3.357-7.5-7.5-7.5s-7.5 3.358-7.5 7.5v.508c0 4.142 3.357 7.5 7.5 7.5s7.5-3.358 7.5-7.5z"/><path d="m140.604 415.478c0 4.142 3.357 7.5 7.5 7.5s7.5-3.358 7.5-7.5v-.508c0-4.142-3.357-7.5-7.5-7.5s-7.5 3.358-7.5 7.5z"/></g></svg>